<?xml version="1.0" encoding="UTF-8"?>
<svg version="1.1" xmlns="http://www.w3.org/2000/svg" width="766" height="759">
<path d="M0 0 C3.32809479 -0.00217459 6.65585075 -0.02035539 9.98388672 -0.03930664 C28.91986705 -0.09040737 47.50667524 1.20867655 66.17529297 4.43530273 C67.43519043 4.65001221 68.69508789 4.86472168 69.99316406 5.0859375 C82.25620927 7.23879693 94.33680546 9.96900147 106.36279297 13.18530273 C107.63993164 13.52682373 107.63993164 13.52682373 108.94287109 13.87524414 C114.8070871 15.4759476 120.59477526 17.26785766 126.36279297 19.18530273 C127.33812988 19.50917969 128.3134668 19.83305664 129.31835938 20.16674805 C178.50633204 36.80600289 224.40825347 64.158297 262.44873047 99.48999023 C265.12211824 101.96269474 267.8281613 104.39156655 270.55029297 106.81030273 C277.99345672 113.50199322 284.86545948 120.57960059 291.36279297 128.18530273 C292.255175 129.20297329 293.14847994 130.21983495 294.04248047 131.23608398 C346.63721149 191.33315791 378.20327474 267.86486369 385.36279297 347.18530273 C385.47494141 348.36350586 385.58708984 349.54170898 385.70263672 350.75561523 C391.76672435 427.67815153 373.2519567 510.01606409 331.36279297 575.18530273 C330.83717773 576.00401855 330.3115625 576.82273437 329.77001953 577.66625977 C317.64231322 596.42511639 304.53540763 614.34168305 289.46826172 630.86108398 C287.62301742 632.89804198 285.83197627 634.96801121 284.05029297 637.06030273 C277.37431626 644.71438766 270.05967116 651.92835629 262.31982422 658.50170898 C260.93856963 659.68997391 259.58390147 660.90948466 258.24951172 662.15014648 C250.41258565 669.43387777 241.93004657 675.79806811 233.36279297 682.18530273 C232.63495605 682.7326709 231.90711914 683.28003906 231.15722656 683.84399414 C171.53950312 728.56726069 94.00240762 757.07571191 19.14404297 757.38842773 C18.01552917 757.39544205 16.88701538 757.40245636 15.7243042 757.40968323 C12.10375939 757.4270876 8.48337807 757.43353516 4.86279297 757.43530273 C3.62670288 757.43597748 2.39061279 757.43665222 1.11706543 757.43734741 C-16.67401632 757.42189323 -34.05285862 757.10180065 -51.63720703 754.18530273 C-52.72066406 754.01369629 -53.80412109 753.84208984 -54.92041016 753.6652832 C-130.9344014 741.40884859 -199.91570068 707.99737423 -256.63720703 656.18530273 C-258.08933594 654.87239258 -258.08933594 654.87239258 -259.57080078 653.53295898 C-268.83834796 645.13433703 -277.68129756 636.61598423 -285.50048828 626.81811523 C-287.41261345 624.46204144 -289.39367895 622.22763938 -291.44970703 619.99780273 C-307.17999976 602.40593691 -320.21630363 581.77275304 -331.63720703 561.18530273 C-332.09804688 560.35933594 -332.55888672 559.53336914 -333.03369141 558.68237305 C-355.3046741 518.40727818 -369.70991595 473.80500513 -375.63720703 428.18530273 C-375.74758301 427.33774414 -375.85795898 426.49018555 -375.97167969 425.61694336 C-383.16553057 368.83650144 -376.86124041 311.3703463 -358.63720703 257.18530273 C-358.27675293 256.10845215 -357.91629883 255.03160156 -357.54492188 253.92211914 C-341.45002229 206.56800591 -315.20091373 162.34374521 -281.05126953 125.78295898 C-279.02443078 123.60197554 -277.06826009 121.38790052 -275.13720703 119.12280273 C-268.84594467 111.88106188 -261.93089628 105.12059238 -254.62939453 98.90405273 C-253.23590112 97.70182313 -251.86778813 96.46982833 -250.52001953 95.21655273 C-183.90908266 33.31548008 -90.12681715 -0.00656423 0 0 Z " fill="#C2E7FA" transform="translate(378.63720703125,-0.185302734375)"/>
<path d="M0 0 C1.37442261 -0.01469078 1.37442261 -0.01469078 2.77661133 -0.02967834 C41.22023206 -0.35562644 41.22023206 -0.35562644 57.05078125 4.23828125 C57.79102539 4.44195312 58.53126953 4.645625 59.29394531 4.85546875 C94.55603179 14.84665023 123.94819199 44.4104859 145.05078125 73.23828125 C145.46038086 73.79628418 145.86998047 74.35428711 146.29199219 74.92919922 C149.26441205 78.99568306 152.17629999 83.10205642 155.05078125 87.23828125 C155.43137695 87.78581055 155.81197266 88.33333984 156.20410156 88.89746094 C166.35122972 103.59901807 175.48834691 118.99216626 184.69921875 134.2890625 C205.58830918 172.8416418 205.58830918 172.8416418 239.05078125 198.23828125 C240.47538699 198.33408145 241.903982 198.37635121 243.33178711 198.38354492 C244.19376205 198.38992477 245.055737 198.39630463 245.9438324 198.40287781 C247.34061974 198.40454704 247.34061974 198.40454704 248.765625 198.40625 C249.7317421 198.4095784 250.69785919 198.4129068 251.69325256 198.41633606 C253.74349492 198.42140328 255.79374553 198.42374445 257.84399414 198.42358398 C260.94496793 198.42575098 264.04557447 198.4438545 267.14648438 198.46289062 C281.9953557 198.50646319 294.45345669 197.64098674 308.05078125 191.23828125 C309.24574219 190.6865625 310.44070313 190.13484375 311.671875 189.56640625 C324.60016836 183.46313248 331.82323882 176.61170988 337.92578125 163.48828125 C342.66084243 149.80921562 340.42095135 136.82975911 335.63671875 123.734375 C333.35120768 117.447191 331.92419775 111.00531021 330.53613281 104.47167969 C330.02686989 102.1282505 329.47367101 99.79766492 328.91796875 97.46484375 C326.87659685 88.57236434 325.67409605 80.00150475 325.61328125 70.86328125 C325.60329102 69.98961914 325.59330078 69.11595703 325.58300781 68.21582031 C325.65198925 63.16834989 326.25111318 59.60328097 329.05078125 55.23828125 C330.86328125 54.05078125 330.86328125 54.05078125 333.05078125 54.23828125 C338.53102687 58.06599839 341.44534538 62.51702904 344.67578125 68.30078125 C345.18141602 69.19385986 345.68705078 70.08693848 346.20800781 71.00708008 C350.57057138 78.93321028 354.25608717 87.1110717 357.80078125 95.42578125 C358.20021942 96.36238083 358.20021942 96.36238083 358.60772705 97.31790161 C363.05078125 107.79707992 363.05078125 107.79707992 363.05078125 110.23828125 C363.72282593 109.72442871 363.72282593 109.72442871 364.40844727 109.20019531 C366.47343996 107.62519638 368.54330383 106.05672229 370.61328125 104.48828125 C371.31775391 103.94945312 372.02222656 103.410625 372.74804688 102.85546875 C383.3783608 94.82149878 394.71083209 89.29310449 408.37890625 89.78125 C413.37693207 90.63617547 416.40011053 93.08523249 419.48828125 97.11328125 C421.12454883 103.29473656 419.93814547 107.97165555 416.95703125 113.4453125 C409.66067499 124.13567054 399.08738044 131.83502724 388.60546875 139.16796875 C387.88657471 139.67432861 387.16768066 140.18068848 386.42700195 140.70239258 C384.05078125 142.23828125 384.05078125 142.23828125 381.13354492 143.7175293 C375.32804689 146.75888775 375.32804689 146.75888775 371.8671875 152.09765625 C371.2081824 155.51212644 370.85974402 158.83246006 370.61328125 162.30078125 C370.3446526 164.74416916 370.06998233 167.18690095 369.7890625 169.62890625 C369.66740723 170.78583984 369.54575195 171.94277344 369.42041016 173.13476562 C368.70925995 179.10579698 367.03161538 184.56447244 365.05078125 190.23828125 C364.6647876 191.40907227 364.6647876 191.40907227 364.27099609 192.60351562 C350.65217064 233.85217724 323.64355929 271.33181804 286.17578125 293.98828125 C285.26618652 294.54410889 284.3565918 295.09993652 283.41943359 295.67260742 C277.75017226 299.01416294 272.22557308 301.37620108 265.94165039 303.31787109 C263.27579878 304.16663898 260.74163724 305.14725079 258.1640625 306.23046875 C252.0003901 308.7511311 245.63275621 310.52831462 239.23828125 312.36328125 C236.85613865 313.05120005 234.47460252 313.74122327 232.09375 314.43359375 C231.0524292 314.73281738 230.0111084 315.03204102 228.93823242 315.34033203 C226.07259158 316.18759496 226.07259158 316.18759496 223.45727539 317.28857422 C221.12447498 318.2091985 218.96272127 318.76773485 216.50390625 319.23828125 C215.65828125 319.40328125 214.81265625 319.56828125 213.94140625 319.73828125 C213.07 319.90328125 212.19859375 320.06828125 211.30078125 320.23828125 C209.57663603 320.57064659 207.85267606 320.90397438 206.12890625 321.23828125 C205.27941406 321.40199219 204.42992187 321.56570313 203.5546875 321.734375 C201.1717044 322.2139457 198.80851788 322.74886403 196.44140625 323.30078125 C191.47609978 324.42120298 186.50313595 324.94249803 181.4453125 325.44921875 C177.83329916 325.83645863 174.37676905 326.36501804 170.84765625 327.234375 C164.90092876 328.61963384 158.87924222 328.90629874 152.80078125 329.30078125 C150.50371628 329.45553897 148.20683071 329.61298853 145.91015625 329.7734375 C144.90436523 329.83926025 143.89857422 329.90508301 142.86230469 329.97290039 C140.19735386 330.2244462 137.67116803 330.70763188 135.05078125 331.23828125 C132.6141136 331.30529631 130.17576383 331.32356146 127.73828125 331.30078125 C126.48402344 331.29175781 125.22976563 331.28273438 123.9375 331.2734375 C122.98488281 331.26183594 122.03226562 331.25023437 121.05078125 331.23828125 C121.0971875 332.30304688 121.14359375 333.3678125 121.19140625 334.46484375 C121.59980206 347.91852405 120.03893191 361.50987163 111.05078125 372.23828125 C102.46758934 379.74507939 95.08239403 381.56505565 83.92578125 381.42578125 C82.93707031 381.42513672 81.94835937 381.42449219 80.9296875 381.42382812 C72.97189659 381.37537067 72.97189659 381.37537067 69.05078125 380.23828125 C69.05078125 379.57828125 69.05078125 378.91828125 69.05078125 378.23828125 C68.37015625 378.21765625 67.68953125 378.19703125 66.98828125 378.17578125 C60.49145847 376.10232717 56.94402325 370.51779074 53.80078125 364.73828125 C49.05947569 354.62180576 47.82433123 344.27841845 48.05078125 333.23828125 C47.25607422 333.24875488 46.46136719 333.25922852 45.64257812 333.27001953 C18.2746773 333.58299929 18.2746773 333.58299929 6.86425781 331.76245117 C3.11008897 331.24643321 -0.5674552 331.00122164 -4.3515625 330.82421875 C-12.18656924 330.39366897 -19.86555337 329.38470293 -27.60839844 328.13647461 C-29.73869224 327.79444355 -31.87100914 327.46793942 -34.00390625 327.14257812 C-35.3764441 326.92668216 -36.74884592 326.70991923 -38.12109375 326.4921875 C-39.94785645 326.20323608 -39.94785645 326.20323608 -41.81152344 325.90844727 C-44.57648085 325.31789264 -46.50056221 324.57846141 -48.94921875 323.23828125 C-50.85605627 322.87053401 -52.77496033 322.56250034 -54.69921875 322.30078125 C-59.09598819 321.62558207 -62.8403389 320.63602078 -66.9296875 318.9453125 C-69.22610254 318.14134515 -71.41838708 317.78720361 -73.82421875 317.42578125 C-82.13834383 316.07341296 -90.02354002 313.01096094 -97.94921875 310.23828125 C-97.94921875 309.57828125 -97.94921875 308.91828125 -97.94921875 308.23828125 C-98.58859375 308.15578125 -99.22796875 308.07328125 -99.88671875 307.98828125 C-106.31287001 306.41452992 -112.20120846 303.15785122 -118.06640625 300.15625 C-120.14502847 299.10927282 -120.14502847 299.10927282 -123.19921875 297.98828125 C-134.00494396 293.38175894 -142.61802794 285.27884912 -150.94921875 277.23828125 C-151.62984375 276.60921875 -152.31046875 275.98015625 -153.01171875 275.33203125 C-167.9442415 261.19946507 -174.17475723 243.26745842 -174.94921875 223.23828125 C-170.34965337 225.84082014 -165.82658387 228.53208546 -161.32421875 231.30078125 C-154.98949954 235.14382243 -148.51100064 238.67399851 -141.94921875 242.11328125 C-140.62349854 242.80949585 -140.62349854 242.80949585 -139.27099609 243.51977539 C-134.56351327 245.96468127 -129.8526551 248.21606115 -124.94921875 250.23828125 C-123.60730469 250.82029297 -123.60730469 250.82029297 -122.23828125 251.4140625 C-113.61297914 255.09436003 -104.82565135 258.22789409 -95.94921875 261.23828125 C-94.48548828 261.73908203 -94.48548828 261.73908203 -92.9921875 262.25 C-88.13562111 263.81786789 -83.56848448 264.64299033 -78.46875 264.9296875 C-75.94921875 265.23828125 -75.94921875 265.23828125 -72.6328125 266.19921875 C-68.80740868 267.27828282 -65.14284466 267.82960506 -61.19921875 268.30078125 C-54.24875073 269.13843726 -54.24875073 269.13843726 -50.94921875 270.23828125 C-49.4992749 270.3342774 -48.04538559 270.37636375 -46.59228516 270.38354492 C-45.71351715 270.38992477 -44.83474915 270.39630463 -43.92935181 270.40287781 C-42.50445938 270.40454704 -42.50445938 270.40454704 -41.05078125 270.40625 C-40.06483978 270.4095784 -39.07889832 270.4129068 -38.06307983 270.41633606 C-35.9699551 270.42140398 -33.87682227 270.42374443 -31.78369141 270.42358398 C-28.62127794 270.42574903 -25.45922573 270.44384628 -22.296875 270.46289062 C-5.40186795 270.66195643 -5.40186795 270.66195643 11.05078125 267.23828125 C10.72078125 264.26828125 10.39078125 261.29828125 10.05078125 258.23828125 C9.17035156 258.38265625 8.28992188 258.52703125 7.3828125 258.67578125 C6.22136719 258.86140625 5.05992187 259.04703125 3.86328125 259.23828125 C2.71472656 259.42390625 1.56617188 259.60953125 0.3828125 259.80078125 C-2.45337268 260.17317602 -5.09641439 260.32424146 -7.94921875 260.23828125 C-7.94921875 260.89828125 -7.94921875 261.55828125 -7.94921875 262.23828125 C-14.1971755 262.26355249 -20.44511916 262.28111469 -26.69311523 262.29321289 C-28.82039889 262.29825423 -30.94767906 262.30508716 -33.07495117 262.3137207 C-36.12549701 262.32579504 -39.1759972 262.33151139 -42.2265625 262.3359375 C-43.66249001 262.34367943 -43.66249001 262.34367943 -45.12742615 262.35157776 C-46.0082637 262.35165329 -46.88910126 262.35172882 -47.79663086 262.35180664 C-48.57606552 262.35402725 -49.35550018 262.35624786 -50.15855408 262.35853577 C-51.94921875 262.23828125 -51.94921875 262.23828125 -52.94921875 261.23828125 C-54.56288376 260.94079415 -56.18654719 260.69722241 -57.8125 260.4765625 C-70.9263329 258.59932037 -83.25065745 255.98473667 -95.84277344 251.89599609 C-99.69293866 250.6938235 -103.61006935 249.78159098 -107.5390625 248.87890625 C-110.11151616 248.19514223 -112.49897064 247.27273305 -114.94921875 246.23828125 C-114.94921875 245.57828125 -114.94921875 244.91828125 -114.94921875 244.23828125 C-116.03589844 244.04685547 -116.03589844 244.04685547 -117.14453125 243.8515625 C-122.94866697 242.58241305 -128.51839499 240.17976359 -133.63671875 237.17578125 C-136.41923674 235.54827073 -139.1535302 234.29823858 -142.11352539 233.04858398 C-146.91973441 230.92705084 -151.4017029 228.19362674 -155.8828125 225.46875 C-157.3240276 224.61055953 -158.78136296 223.77911849 -160.25 222.96875 C-162.64800457 221.63826956 -164.98369428 220.22951837 -167.32421875 218.80078125 C-168.08009277 218.4025415 -168.8359668 218.00430176 -169.61474609 217.59399414 C-172.12332814 215.98523588 -173.42649509 214.81937484 -174.94921875 212.23828125 C-175.81128913 206.50809437 -175.47178623 200.99028688 -174.94921875 195.23828125 C-174.85586243 194.17521255 -174.85586243 194.17521255 -174.76062012 193.09066772 C-174.29369219 188.13609982 -173.62341391 183.22162418 -172.88671875 178.30078125 C-172.77728943 177.55014404 -172.66786011 176.79950684 -172.55511475 176.02612305 C-170.45604584 161.77666728 -167.33383491 147.97209268 -162.94921875 134.23828125 C-162.67883789 133.38959473 -162.40845703 132.5409082 -162.12988281 131.66650391 C-153.56269117 105.46683645 -140.47849474 80.70470882 -121.94921875 60.23828125 C-121.2015625 59.37074219 -120.45390625 58.50320313 -119.68359375 57.609375 C-107.06544093 43.10757707 -92.06440075 30.97120969 -75.32421875 21.55078125 C-74.20539307 20.91740845 -74.20539307 20.91740845 -73.06396484 20.27124023 C-69.02167403 18.07597665 -65.60692798 16.67172738 -60.94921875 16.23828125 C-60.94921875 15.57828125 -60.94921875 14.91828125 -60.94921875 14.23828125 C-57.1671531 12.83922915 -53.38085916 11.45232276 -49.59057617 10.07568359 C-48.30653606 9.60750553 -47.02361622 9.13624135 -45.74194336 8.66162109 C-35.65021676 4.92803746 -26.08351091 2.34291414 -15.32421875 1.67578125 C-9.9483889 1.33720071 -5.58674983 0.04770367 0 0 Z " fill="#0077BE" transform="translate(275.94921875,207.76171875)"/>
<path d="M0 0 C1.21236328 0.02707031 1.21236328 0.02707031 2.44921875 0.0546875 C3.37154297 0.08949219 3.37154297 0.08949219 4.3125 0.125 C4.3125 0.785 4.3125 1.445 4.3125 2.125 C4.93125 2.393125 5.55 2.66125 6.1875 2.9375 C8.3125 4.125 8.3125 4.125 10.3125 7.125 C10.85772803 10.18975543 10.86092924 13.06024839 10.3125 16.125 C7.875 19.125 7.875 19.125 5.3125 21.125 C4.9825 21.455 4.6525 21.785 4.3125 22.125 C0.91010154 22.62275829 -2.28985664 22.6675694 -5.6875 22.125 C-9.37479358 19.11496442 -10.82349468 16.75752661 -11.75 12.125 C-12.0567897 7.79677774 -10.50261431 5.40930002 -7.6875 2.125 C-4.48369983 -0.01086678 -3.66810033 -0.10632175 0 0 Z " fill="#BAE3F8" transform="translate(272.6875,407.875)"/>
</svg>
