<svg width="538" height="538" viewBox="0 0 538 538" fill="none" xmlns="http://www.w3.org/2000/svg">
<circle cx="269" cy="269" r="269" fill="#C3E8FB"/>
<path d="M297.835 129L171.486 206.513L266.349 320.474L165.062 369.315M136.122 401.875C150.592 418.155 197.763 398.228 230.522 385.595C272.773 369.315 324.227 385.595 309.758 369.315L251.879 304.194C251.879 304.194 121.653 385.595 136.122 401.875ZM374.061 304.194C381.736 304.194 389.097 300.763 394.524 294.657C399.951 288.551 403 280.269 403 271.633C403 262.998 399.951 254.716 394.524 248.61C389.097 242.503 381.736 239.073 374.061 239.073C366.386 239.073 359.025 242.503 353.598 248.61C348.17 254.716 345.122 262.998 345.122 271.633C345.122 280.269 348.17 288.551 353.598 294.657C359.025 300.763 366.386 304.194 374.061 304.194Z" stroke="#0077BE" stroke-width="60" stroke-linecap="round" stroke-linejoin="round"/>
</svg>
